<?xml version="1.0" standalone="no"?>
<!DOCTYPE svg PUBLIC "-//W3C//DTD SVG 20010904//EN"
 "http://www.w3.org/TR/2001/REC-SVG-20010904/DTD/svg10.dtd">
<svg version="1.0" xmlns="http://www.w3.org/2000/svg"
 width="512.000000pt" height="512.000000pt" viewBox="0 0 512.000000 512.000000"
 preserveAspectRatio="xMidYMid meet">
<metadata>
Created by potrace 1.16, written by Peter Selinger 2001-2019
</metadata>
<g transform="translate(0.000000,512.000000) scale(0.100000,-0.100000)"
fill="#000000" stroke="none">
<path d="M2380 4073 c-610 -80 -1105 -489 -1289 -1065 -86 -269 -93 -584 -20
-864 118 -456 462 -848 898 -1026 87 -36 301 -98 337 -98 12 0 14 78 14 540
l0 540 -190 0 -190 0 0 220 0 220 189 0 188 0 6 228 c4 155 11 247 22 291 51
207 185 343 390 396 71 18 276 19 410 2 l90 -12 3 -187 2 -186 -149 -4 c-148
-3 -150 -3 -193 -33 -53 -38 -84 -83 -95 -138 -4 -23 -7 -115 -5 -204 l3 -163
210 0 210 0 -6 -32 c-3 -18 -18 -114 -33 -213 l-28 -180 -177 -3 -177 -2 0
-540 c0 -425 3 -540 13 -540 27 0 216 50 282 75 438 165 779 517 924 951 59
176 75 280 75 489 1 212 -8 279 -60 453 -163 541 -602 942 -1162 1063 -73 15
-142 21 -277 24 -99 2 -196 1 -215 -2z"/>
</g>
</svg>
