<?xml version="1.0" standalone="no"?>
<!DOCTYPE svg PUBLIC "-//W3C//DTD SVG 20010904//EN"
 "http://www.w3.org/TR/2001/REC-SVG-20010904/DTD/svg10.dtd">
<svg version="1.0" xmlns="http://www.w3.org/2000/svg"
 width="360.000000pt" height="360.000000pt" viewBox="0 0 360.000000 360.000000"
 preserveAspectRatio="xMidYMid meet">
<metadata>
Created by potrace 1.16, written by Peter Selinger 2001-2019
</metadata>
<g transform="translate(0.000000,360.000000) scale(0.100000,-0.100000)"
fill="#000000" stroke="none">
<path d="M1560 3535 c-281 -39 -548 -146 -790 -318 -109 -78 -309 -278 -387
-387 -156 -220 -260 -465 -309 -727 -21 -116 -29 -379 -15 -502 14 -115 59
-307 96 -404 204 -540 643 -941 1190 -1087 512 -137 1048 -39 1485 274 107 76
299 265 378 373 222 302 341 666 342 1043 0 159 -13 263 -51 420 -174 705
-767 1231 -1489 1320 -112 13 -332 11 -450 -5z m650 -557 c0 -105 65 -251 149
-337 100 -100 199 -152 328 -171 36 -5 68 -12 71 -15 3 -3 6 -95 7 -203 l0
-197 -80 3 c-128 5 -297 58 -414 128 l-56 34 -6 -463 c-6 -512 -8 -524 -74
-658 -47 -96 -92 -155 -177 -234 -156 -145 -394 -218 -598 -186 -291 47 -513
232 -607 505 -26 75 -28 92 -28 236 0 144 2 161 28 235 77 220 250 394 467
471 63 22 97 27 213 31 l137 5 0 -210 0 -210 -82 5 c-70 4 -93 1 -142 -17 -72
-28 -147 -95 -184 -165 -24 -44 -27 -62 -27 -145 0 -110 16 -150 90 -229 70
-75 122 -96 235 -96 84 0 101 3 147 27 64 34 117 87 152 153 l26 50 3 848 2
847 210 0 210 0 0 -42z"/>
</g>
</svg>
