<?xml version="1.0" standalone="no"?>
<!DOCTYPE svg PUBLIC "-//W3C//DTD SVG 20010904//EN"
 "http://www.w3.org/TR/2001/REC-SVG-20010904/DTD/svg10.dtd">
<svg version="1.0" xmlns="http://www.w3.org/2000/svg"
 width="736.000000pt" height="736.000000pt" viewBox="0 0 736.000000 736.000000"
 preserveAspectRatio="xMidYMid meet">
<metadata>
Created by potrace 1.16, written by Peter Selinger 2001-2019
</metadata>
<g transform="translate(0.000000,736.000000) scale(0.100000,-0.100000)"
fill="#000000" stroke="none">
<path d="M3491 5519 c-570 -64 -1082 -395 -1379 -890 -188 -313 -277 -691
-251 -1066 16 -231 84 -479 185 -681 l52 -105 -128 -470 c-71 -259 -128 -472
-127 -473 1 -1 160 40 352 90 193 51 409 108 481 126 l131 34 94 -43 c590
-274 1257 -227 1794 126 401 264 683 675 783 1143 219 1018 -452 2013 -1478
2191 -134 23 -385 32 -509 18z m354 -309 c196 -23 350 -68 518 -151 758 -376
1064 -1299 680 -2051 -190 -373 -531 -658 -926 -772 -147 -43 -260 -59 -422
-59 -284 -1 -515 59 -761 197 l-79 45 -284 -75 c-156 -41 -285 -73 -286 -72
-1 2 31 127 72 278 l75 275 -26 45 c-102 174 -176 358 -213 530 -26 122 -26
468 0 590 138 648 648 1126 1297 1215 119 16 239 18 355 5z"/>
<path d="M3000 4591 c-78 -24 -165 -111 -215 -217 -30 -62 -55 -168 -55 -231
0 -127 59 -298 160 -459 233 -374 472 -611 757 -753 384 -191 588 -216 788
-96 117 70 163 137 186 270 18 102 16 104 -129 184 -203 111 -318 164 -341
156 -11 -3 -57 -49 -101 -100 -94 -110 -124 -135 -156 -135 -28 0 -169 72
-253 129 -147 100 -269 230 -373 399 -63 100 -62 121 2 197 89 107 110 138
110 163 0 25 -126 376 -155 433 -29 55 -142 85 -225 60z"/>
</g>
</svg>
